<?xml version="1.0" encoding="UTF-8" standalone="no"?>
<!-- Created with Inkscape (http://www.inkscape.org/) -->

<svg
   xmlns:dc="http://purl.org/dc/elements/1.1/"
   xmlns:cc="http://creativecommons.org/ns#"
   xmlns:rdf="http://www.w3.org/1999/02/22-rdf-syntax-ns#"
   xmlns:svg="http://www.w3.org/2000/svg"
   xmlns="http://www.w3.org/2000/svg"
   xmlns:sodipodi="http://sodipodi.sourceforge.net/DTD/sodipodi-0.dtd"
   xmlns:inkscape="http://www.inkscape.org/namespaces/inkscape"
   width="4606.2993"
   height="1771.6534"
   id="svg2995"
   version="1.1"
   inkscape:version="0.48.5 r10040"
   sodipodi:docname="Risikoeinstellung.svg">
  <sodipodi:namedview
     id="base"
     pagecolor="#ffffff"
     bordercolor="#666666"
     borderopacity="1.0"
     inkscape:pageopacity="0.0"
     inkscape:pageshadow="2"
     inkscape:zoom="0.21213203"
     inkscape:cx="2594.9167"
     inkscape:cy="591.1082"
     inkscape:document-units="mm"
     inkscape:current-layer="layer1"
     showgrid="false"
     units="mm"
     inkscape:window-width="1680"
     inkscape:window-height="966"
     inkscape:window-x="1272"
     inkscape:window-y="-8"
     inkscape:window-maximized="1" />
  <defs
     id="defs3">
    <marker
       style="overflow:visible"
       id="Arrow2Mstart"
       refX="0"
       refY="0"
       orient="auto"
       inkscape:stockid="Arrow2Mstart">
      <path
         transform="scale(0.6,0.6)"
         d="M 8.7185878,4.0337352 -2.2072895,0.01601326 8.7185884,-4.0017078 c -1.7454984,2.3720609 -1.7354408,5.6174519 -6e-7,8.035443 z"
         style="fill-rule:evenodd;stroke-width:0.625;stroke-linejoin:round"
         id="path3895"
         inkscape:connector-curvature="0" />
    </marker>
    <marker
       style="overflow:visible"
       id="Arrow2Lstart"
       refX="0"
       refY="0"
       orient="auto"
       inkscape:stockid="Arrow2Lstart">
      <path
         transform="matrix(1.1,0,0,1.1,1.1,0)"
         d="M 8.7185878,4.0337352 -2.2072895,0.01601326 8.7185884,-4.0017078 c -1.7454984,2.3720609 -1.7354408,5.6174519 -6e-7,8.035443 z"
         style="fill-rule:evenodd;stroke-width:0.625;stroke-linejoin:round"
         id="path3889"
         inkscape:connector-curvature="0" />
    </marker>
    <marker
       style="overflow:visible"
       id="Arrow1Sstart"
       refX="0"
       refY="0"
       orient="auto"
       inkscape:stockid="Arrow1Sstart">
      <path
         transform="matrix(0.2,0,0,0.2,1.2,0)"
         style="fill-rule:evenodd;stroke:#000000;stroke-width:1pt"
         d="M 0,0 5,-5 -12.5,0 5,5 0,0 z"
         id="path3883"
         inkscape:connector-curvature="0" />
    </marker>
    <marker
       style="overflow:visible"
       id="Arrow1Mend"
       refX="0"
       refY="0"
       orient="auto"
       inkscape:stockid="Arrow1Mend">
      <path
         inkscape:connector-curvature="0"
         transform="matrix(-0.4,0,0,-0.4,-4,0)"
         style="fill-rule:evenodd;stroke:#000000;stroke-width:1pt"
         d="M 0,0 5,-5 -12.5,0 5,5 0,0 z"
         id="path4098" />
    </marker>
    <marker
       style="overflow:visible"
       id="Arrow1Mstart"
       refX="0"
       refY="0"
       orient="auto"
       inkscape:stockid="Arrow1Mstart">
      <path
         inkscape:connector-curvature="0"
         transform="matrix(0.4,0,0,0.4,4,0)"
         style="fill-rule:evenodd;stroke:#000000;stroke-width:1pt"
         d="M 0,0 5,-5 -12.5,0 5,5 0,0 z"
         id="path4095" />
    </marker>
    <marker
       style="overflow:visible"
       id="Arrow2Lend"
       refX="0"
       refY="0"
       orient="auto"
       inkscape:stockid="Arrow2Lend">
      <path
         inkscape:connector-curvature="0"
         transform="matrix(-1.1,0,0,-1.1,-1.1,0)"
         d="M 8.7185878,4.0337352 -2.2072895,0.01601326 8.7185884,-4.0017078 c -1.7454984,2.3720609 -1.7354408,5.6174519 -6e-7,8.035443 z"
         style="fill-rule:evenodd;stroke-width:0.625;stroke-linejoin:round"
         id="path4110" />
    </marker>
    <marker
       style="overflow:visible"
       id="Arrow1Lstart"
       refX="0"
       refY="0"
       orient="auto"
       inkscape:stockid="Arrow1Lstart">
      <path
         inkscape:connector-curvature="0"
         transform="matrix(0.8,0,0,0.8,10,0)"
         style="fill-rule:evenodd;stroke:#000000;stroke-width:1pt"
         d="M 0,0 5,-5 -12.5,0 5,5 0,0 z"
         id="path4089" />
    </marker>
    <marker
       style="overflow:visible"
       id="Arrow1Mstart-1"
       refX="0"
       refY="0"
       orient="auto"
       inkscape:stockid="Arrow1Mstart">
      <path
         transform="matrix(0.4,0,0,0.4,4,0)"
         style="fill-rule:evenodd;stroke:#000000;stroke-width:1pt"
         d="M 0,0 5,-5 -12.5,0 5,5 0,0 z"
         id="path4095-7"
         inkscape:connector-curvature="0" />
    </marker>
    <marker
       style="overflow:visible"
       id="Arrow1Mend-4"
       refX="0"
       refY="0"
       orient="auto"
       inkscape:stockid="Arrow1Mend">
      <path
         transform="matrix(-0.4,0,0,-0.4,-4,0)"
         style="fill-rule:evenodd;stroke:#000000;stroke-width:1pt"
         d="M 0,0 5,-5 -12.5,0 5,5 0,0 z"
         id="path4098-0"
         inkscape:connector-curvature="0" />
    </marker>
    <marker
       style="overflow:visible"
       id="Arrow1Mend-48"
       refX="0"
       refY="0"
       orient="auto"
       inkscape:stockid="Arrow1Mend">
      <path
         transform="matrix(-0.4,0,0,-0.4,-4,0)"
         style="fill-rule:evenodd;stroke:#000000;stroke-width:1pt"
         d="M 0,0 5,-5 -12.5,0 5,5 0,0 z"
         id="path4098-8"
         inkscape:connector-curvature="0" />
    </marker>
    <marker
       style="overflow:visible"
       id="Arrow1Mend-5"
       refX="0"
       refY="0"
       orient="auto"
       inkscape:stockid="Arrow1Mend">
      <path
         transform="matrix(-0.4,0,0,-0.4,-4,0)"
         style="fill-rule:evenodd;stroke:#000000;stroke-width:1pt"
         d="M 0,0 5,-5 -12.5,0 5,5 0,0 z"
         id="path4098-5"
         inkscape:connector-curvature="0" />
    </marker>
    <marker
       style="overflow:visible"
       id="Arrow1Mend-1"
       refX="0"
       refY="0"
       orient="auto"
       inkscape:stockid="Arrow1Mend">
      <path
         transform="matrix(-0.4,0,0,-0.4,-4,0)"
         style="fill-rule:evenodd;stroke:#000000;stroke-width:1pt"
         d="M 0,0 5,-5 -12.5,0 5,5 0,0 z"
         id="path4098-1"
         inkscape:connector-curvature="0" />
    </marker>
    <marker
       style="overflow:visible"
       id="Arrow1Mend-2"
       refX="0"
       refY="0"
       orient="auto"
       inkscape:stockid="Arrow1Mend">
      <path
         transform="matrix(-0.4,0,0,-0.4,-4,0)"
         style="fill-rule:evenodd;stroke:#000000;stroke-width:1pt"
         d="M 0,0 5,-5 -12.5,0 5,5 0,0 z"
         id="path4098-7"
         inkscape:connector-curvature="0" />
    </marker>
    <marker
       style="overflow:visible"
       id="Arrow2Mstart-1"
       refX="0"
       refY="0"
       orient="auto"
       inkscape:stockid="Arrow2Mstart">
      <path
         transform="scale(0.6,0.6)"
         d="M 8.7185878,4.0337352 -2.2072895,0.01601326 8.7185884,-4.0017078 c -1.7454984,2.3720609 -1.7354408,5.6174519 -6e-7,8.035443 z"
         style="fill-rule:evenodd;stroke-width:0.625;stroke-linejoin:round"
         id="path3895-7"
         inkscape:connector-curvature="0" />
    </marker>
    <marker
       style="overflow:visible"
       id="Arrow2Mstart-2"
       refX="0"
       refY="0"
       orient="auto"
       inkscape:stockid="Arrow2Mstart">
      <path
         transform="scale(0.6,0.6)"
         d="M 8.7185878,4.0337352 -2.2072895,0.01601326 8.7185884,-4.0017078 c -1.7454984,2.3720609 -1.7354408,5.6174519 -6e-7,8.035443 z"
         style="fill-rule:evenodd;stroke-width:0.625;stroke-linejoin:round"
         id="path3895-3"
         inkscape:connector-curvature="0" />
    </marker>
    <marker
       style="overflow:visible"
       id="marker5989"
       refX="0"
       refY="0"
       orient="auto"
       inkscape:stockid="Arrow2Mstart">
      <path
         transform="scale(0.6,0.6)"
         d="M 8.7185878,4.0337352 -2.2072895,0.01601326 8.7185884,-4.0017078 c -1.7454984,2.3720609 -1.7354408,5.6174519 -6e-7,8.035443 z"
         style="fill-rule:evenodd;stroke-width:0.625;stroke-linejoin:round"
         id="path5991"
         inkscape:connector-curvature="0" />
    </marker>
    <marker
       style="overflow:visible"
       id="Arrow2Mstart-6"
       refX="0"
       refY="0"
       orient="auto"
       inkscape:stockid="Arrow2Mstart">
      <path
         transform="scale(0.6,0.6)"
         d="M 8.7185878,4.0337352 -2.2072895,0.01601326 8.7185884,-4.0017078 c -1.7454984,2.3720609 -1.7354408,5.6174519 -6e-7,8.035443 z"
         style="fill-rule:evenodd;stroke-width:0.625;stroke-linejoin:round"
         id="path3895-0"
         inkscape:connector-curvature="0" />
    </marker>
    <marker
       style="overflow:visible"
       id="marker6060"
       refX="0"
       refY="0"
       orient="auto"
       inkscape:stockid="Arrow2Mstart">
      <path
         transform="scale(0.6,0.6)"
         d="M 8.7185878,4.0337352 -2.2072895,0.01601326 8.7185884,-4.0017078 c -1.7454984,2.3720609 -1.7354408,5.6174519 -6e-7,8.035443 z"
         style="fill-rule:evenodd;stroke-width:0.625;stroke-linejoin:round"
         id="path6062"
         inkscape:connector-curvature="0" />
    </marker>
  </defs>
  <metadata
     id="metadata2999">
    <rdf:RDF>
      <cc:Work
         rdf:about="">
        <dc:format>image/svg+xml</dc:format>
        <dc:type
           rdf:resource="http://purl.org/dc/dcmitype/StillImage" />
        <dc:title />
      </cc:Work>
    </rdf:RDF>
  </metadata>
  <g
     transform="translate(0,1580.315)"
     id="layer1"
     inkscape:groupmode="layer"
     inkscape:label="Layer 1">
    <path
       inkscape:connector-curvature="0"
       id="path4083-9"
       d="M 1417.9886,-3.0678982 269.04272,-3.2968352"
       style="fill:none;stroke:#000000;stroke-width:7.08661413;stroke-linecap:butt;stroke-linejoin:miter;stroke-miterlimit:4;stroke-opacity:1;stroke-dasharray:none;marker-start:url(#Arrow2Mstart);marker-mid:none" />
    <path
       inkscape:connector-curvature="0"
       id="path4083-9-4"
       d="M 268.28283,-1148.8607 272.47166,0.07750877"
       style="fill:none;stroke:#000000;stroke-width:7.08661413;stroke-linecap:butt;stroke-linejoin:miter;stroke-miterlimit:4;stroke-opacity:1;stroke-dasharray:none;marker-start:url(#Arrow2Mstart);marker-mid:none" />
    <path
       sodipodi:nodetypes="cc"
       inkscape:connector-curvature="0"
       id="path5779"
       d="M 411.24195,-192.0474 C 536.29201,-541.4888 924.5009,-956.82482 1306.9105,-976.93585"
       style="fill:none;stroke:#ff0000;stroke-width:10.62992096;stroke-linecap:butt;stroke-linejoin:miter;stroke-miterlimit:4;stroke-opacity:1;stroke-dasharray:none" />
    <path
       sodipodi:nodetypes="cc"
       inkscape:connector-curvature="0"
       id="path5781-9"
       d="M 406.60387,-186.08253 1314.9969,-977.80888"
       style="fill:none;stroke:#ffff00;stroke-width:10.62992096;stroke-linecap:butt;stroke-linejoin:miter;stroke-miterlimit:4;stroke-opacity:1;stroke-dasharray:none" />
    <g
       id="g3078"
       transform="translate(-2513.0796,-3015.5368)">
      <g
         id="content"
         transform="matrix(2.5309334,0,0,-2.5309334,-442.91335,2657.4802)"
         xml:space="preserve"
         stroke-miterlimit="10.433"
         font-style="normal"
         font-variant="normal"
         font-weight="normal"
         font-stretch="normal"
         font-size-adjust="none"
         letter-spacing="normal"
         word-spacing="normal"
         style="font-style:normal;font-variant:normal;font-weight:normal;font-stretch:normal;letter-spacing:normal;word-spacing:normal;text-anchor:start;fill:none;stroke:#000000;stroke-linecap:butt;stroke-linejoin:miter;stroke-miterlimit:10.43299961;stroke-opacity:1;stroke-dasharray:none;stroke-dashoffset:0"><path
           d="m 1196.9,349.24 0.1,-0.19 0,-0.19 0.1,-0.18 0.1,-0.17 0.1,-0.17 0,-0.17 0.1,-0.16 0.1,-0.16 0.1,-0.15 0.2,-0.14 0.1,-0.14 0.1,-0.14 0.1,-0.13 0.2,-0.12 0.1,-0.12 0.1,-0.11 0.2,-0.11 0.1,-0.1 0.2,-0.09 0.2,-0.09 0.1,-0.08 0.2,-0.07 0.2,-0.07 0.1,-0.06 0.2,-0.05 0.2,-0.05 0.2,-0.04 0.2,-0.04 0.2,-0.02 0.2,-0.02 0.2,-0.01 0.2,-0.01 c 1.7,0 2.9,1.15 3.6,2.74 0.9,1.8 1.5,4.84 1.5,4.94 0,0.5 -0.4,0.5 -0.6,0.5 -0.5,0 -0.5,-0.21 -0.7,-0.91 -0.7,-2.78 -1.6,-6.17 -3.7,-6.17 -1.1,0 -1.5,0.65 -1.5,2.3 0,1.09 0.6,3.43 0.9,5.17 l 1.5,5.39 c 0.1,0.75 0.6,2.64 0.8,3.39 0.2,1.14 0.7,3.03 0.7,3.33 0,0.9 -0.6,1.34 -1.4,1.34 -0.2,0 -1.6,-0.05 -1.9,-1.73 -1,-3.64 -3.2,-12.36 -3.8,-15 0,-0.21 -2,-4.19 -5.7,-4.19 -2.6,0 -3.1,2.25 -3.1,4.09 0,2.78 1.4,6.72 2.8,10.16 0.5,1.5 0.8,2.19 0.8,3.14 0,2.23 -1.6,4.08 -4.1,4.08 -4.7,0 -6.6,-7.22 -6.6,-7.67 0,-0.5 0.5,-0.5 0.6,-0.5 0.5,0 0.6,0.1 0.8,0.9 1.3,4.33 3.2,6.17 5.1,6.17 0.4,0 1.2,-0.04 1.2,-1.64 0,-1.2 -0.6,-2.64 -0.8,-3.39 -1.9,-4.94 -2.9,-8.01 -2.9,-10.45 0,-4.74 3.4,-5.99 6.1,-5.99 3.3,0 5.1,2.24 5.9,3.35 z"
           id="path3081"
           inkscape:connector-curvature="0"
           style="fill:#000000;stroke-width:0" /><path
           d="m 1224.5,334.49 0,0.02 0,0.03 0,0.01 0,0.02 0,0.01 0,0.02 0,0.02 0,0.01 0,0.02 0,0.02 0,0.03 -0.1,0.02 0,0.02 0,0.03 0,0.03 0,0.03 -0.1,0.04 0,0.03 0,0.02 0,0.02 0,0.02 -0.1,0.02 0,0.02 0,0.03 0,0.02 0,0.02 -0.1,0.03 0,0.03 0,0.02 0,0.03 -0.1,0.03 0,0.03 0,0.03 0,0.03 -0.1,0.03 0,0.03 0,0.04 -0.1,0.03 0,0.04 0,0.04 -0.1,0.03 0,0.04 c -6.2,6.28 -7.8,15.69 -7.8,23.31 0,8.68 1.9,17.35 8,23.57 0.6,0.61 0.6,0.7 0.6,0.86 0,0.34 -0.2,0.48 -0.5,0.48 -0.5,0 -4.9,-3.37 -7.9,-9.7 -2.5,-5.49 -3.1,-11.02 -3.1,-15.21 0,-3.89 0.5,-9.9 3.3,-15.54 2.9,-6.13 7.2,-9.36 7.7,-9.36 0.3,0 0.5,0.14 0.5,0.5 z"
           id="path3083"
           inkscape:connector-curvature="0"
           style="fill:#000000;stroke-width:0" /><path
           d="m 1273,374.69 0.3,0.41 0.2,0.39 0.3,0.38 0.2,0.37 0.1,0.18 0.2,0.17 0.1,0.17 0.1,0.17 0.2,0.16 0.1,0.15 0.2,0.15 0.1,0.15 0.2,0.13 0.2,0.14 0.1,0.12 0.2,0.12 0.2,0.12 0.2,0.1 0.2,0.1 0.2,0.1 0.2,0.08 0.2,0.08 0.3,0.07 0.2,0.06 0.3,0.06 0.3,0.04 0.2,0.04 0.3,0.03 c 0.5,0.04 1,0.04 1,1 0,0.18 -0.2,0.54 -0.6,0.54 -1.2,0 -2.6,-0.15 -3.9,-0.15 -1.7,0 -3.5,0.15 -5.2,0.15 -0.2,0 -0.9,0 -0.9,-0.95 0,-0.55 0.4,-0.59 0.8,-0.59 1.1,-0.05 2.9,-0.46 2.9,-1.94 0,-0.55 -0.3,-0.95 -0.7,-1.66 l -13.4,-23.45 -1.8,24.7 c -0.1,1 -0.2,2.3 3.4,2.35 0.9,0 1.4,0 1.4,1 0,0.5 -0.6,0.54 -0.8,0.54 -2,0 -4,-0.15 -6,-0.15 -1.2,0 -4.1,0.15 -5.3,0.15 -0.3,0 -0.9,0 -0.9,-1 0,-0.54 0.5,-0.54 1.2,-0.54 2.2,0 2.5,-0.3 2.6,-1.25 l 0.3,-3.83 -12.6,-21.97 -1.9,25.25 c 0,0.59 0,1.75 3.8,1.8 0.5,0 1,0 1,1 0,0.54 -0.6,0.54 -0.6,0.54 -2,0 -4.1,-0.15 -6.2,-0.15 -1.7,0 -3.5,0.15 -5.2,0.15 -0.2,0 -0.9,0 -0.9,-0.95 0,-0.59 0.4,-0.59 1.2,-0.59 2.5,0 2.6,-0.46 2.7,-1.85 l 2.2,-30.44 c 0.1,-0.9 0.1,-1.29 0.8,-1.29 0.6,0 0.8,0.29 1.2,1.04 l 14.7,25.41 1.8,-25.16 c 0.1,-1.04 0.2,-1.29 0.8,-1.29 0.7,0 0.9,0.5 1.2,0.94 z"
           id="path3085"
           inkscape:connector-curvature="0"
           style="fill:#000000;stroke-width:0" /><path
           d="m 1295.8,358.89 -0.1,0.38 0,0.38 0,0.39 0,0.41 0,0.84 -0.1,0.88 -0.1,0.92 -0.1,0.95 -0.1,0.98 -0.2,1 -0.2,1.02 -0.2,1.04 -0.3,1.05 -0.3,1.06 -0.3,1.06 -0.4,1.07 -0.2,0.53 -0.3,0.53 -0.2,0.53 -0.2,0.53 c -3,6.13 -7.3,9.36 -7.8,9.36 -0.3,0 -0.5,-0.19 -0.5,-0.48 0,-0.16 0,-0.25 0.9,-1.16 4.9,-4.92 7.8,-12.84 7.8,-23.27 0,-8.51 -1.9,-17.28 -8.1,-23.56 -0.6,-0.59 -0.6,-0.7 -0.6,-0.84 0,-0.3 0.2,-0.5 0.5,-0.5 0.5,0 5,3.39 7.9,9.72 2.6,5.47 3.2,11 3.2,15.18 z"
           id="path3087"
           inkscape:connector-curvature="0"
           style="fill:#000000;stroke-width:0" /></g>    </g>
    <g
       id="g3173"
       transform="translate(-1209.1962,-1674.1947)">
      <g
         word-spacing="normal"
         letter-spacing="normal"
         font-size-adjust="none"
         font-stretch="normal"
         font-weight="normal"
         font-variant="normal"
         font-style="normal"
         stroke-miterlimit="10.433"
         xml:space="preserve"
         transform="matrix(2.5309334,0,0,-2.5309334,-442.91335,2657.4802)"
         id="g3175"
         style="font-style:normal;font-variant:normal;font-weight:normal;font-stretch:normal;letter-spacing:normal;word-spacing:normal;text-anchor:start;fill:none;stroke:#000000;stroke-linecap:butt;stroke-linejoin:miter;stroke-miterlimit:10.43299961;stroke-opacity:1;stroke-dasharray:none;stroke-dashoffset:0"><path
           id="path3177"
           d="m 1258.8,374.69 0.2,0.41 0.2,0.39 0.3,0.38 0.2,0.37 0.2,0.18 0.1,0.17 0.1,0.17 0.2,0.17 0.1,0.16 0.1,0.15 0.2,0.15 0.1,0.15 0.2,0.13 0.2,0.14 0.1,0.12 0.2,0.12 0.2,0.12 0.2,0.1 0.2,0.1 0.2,0.1 0.2,0.08 0.3,0.08 0.2,0.07 0.3,0.06 0.2,0.06 0.3,0.04 0.3,0.04 0.2,0.03 c 0.5,0.04 1,0.04 1,1 0,0.18 -0.2,0.54 -0.6,0.54 -1.2,0 -2.6,-0.15 -3.8,-0.15 -1.7,0 -3.6,0.15 -5.2,0.15 -0.3,0 -1,0 -1,-0.95 0,-0.55 0.5,-0.59 0.8,-0.59 1.2,-0.05 2.9,-0.46 2.9,-1.94 0,-0.55 -0.2,-0.95 -0.6,-1.66 l -13.5,-23.45 -1.8,24.7 c -0.1,1 -0.2,2.3 3.4,2.35 0.9,0 1.4,0 1.4,1 0,0.5 -0.5,0.54 -0.7,0.54 -2,0 -4.1,-0.15 -6.1,-0.15 -1.2,0 -4.1,0.15 -5.2,0.15 -0.4,0 -1,0 -1,-1 0,-0.54 0.5,-0.54 1.2,-0.54 2.2,0 2.5,-0.3 2.6,-1.25 l 0.3,-3.83 -12.6,-21.97 -1.9,25.25 c 0,0.59 0,1.75 3.8,1.8 0.5,0 1.1,0 1.1,1 0,0.54 -0.6,0.54 -0.7,0.54 -2,0 -4.1,-0.15 -6.2,-0.15 -1.7,0 -3.5,0.15 -5.2,0.15 -0.2,0 -0.9,0 -0.9,-0.95 0,-0.59 0.5,-0.59 1.3,-0.59 2.5,0 2.5,-0.46 2.6,-1.85 l 2.2,-30.44 c 0.1,-0.9 0.2,-1.29 0.9,-1.29 0.5,0 0.7,0.29 1.1,1.04 l 14.7,25.41 1.8,-25.16 c 0.1,-1.04 0.2,-1.29 0.8,-1.29 0.7,0 1,0.5 1.2,0.94 z"
           inkscape:connector-curvature="0"
           style="fill:#000000;stroke-width:0" /></g>    </g>
    <g
       id="g3269"
       transform="translate(-1130,-3016.6666)">
      <g
         id="g3271"
         transform="matrix(2.5309334,0,0,-2.5309334,-442.91335,2657.4802)"
         xml:space="preserve"
         stroke-miterlimit="10.433"
         font-style="normal"
         font-variant="normal"
         font-weight="normal"
         font-stretch="normal"
         font-size-adjust="none"
         letter-spacing="normal"
         word-spacing="normal"
         style="font-style:normal;font-variant:normal;font-weight:normal;font-stretch:normal;letter-spacing:normal;word-spacing:normal;text-anchor:start;fill:none;stroke:#000000;stroke-linecap:butt;stroke-linejoin:miter;stroke-miterlimit:10.43299961;stroke-opacity:1;stroke-dasharray:none;stroke-dashoffset:0"><path
           d="m 1236.6,363.93 0,0.1 0,0.1 0.1,0.11 0,0.11 0,0.12 0.1,0.12 0,0.24 0.1,0.25 0,0.25 0.1,0.25 0.1,0.24 0,0.12 0,0.11 0,0.11 0.1,0.11 0,0.1 0,0.1 0,0.1 0,0.09 0.1,0.08 0,0.08 0,0.07 0,0.06 0,0.05 0,0.05 0,0.03 0,0.02 0,0.01 c 0,0.85 -0.6,1.35 -1.4,1.35 -0.2,0 -1.6,-0.05 -2,-1.78 l -7.2,-28.86 c -0.1,-0.6 -0.1,-0.69 -0.1,-0.8 0,-0.73 0.5,-1.34 1.4,-1.34 1,0 1.6,0.9 1.7,1.04 0.2,0.46 0.9,3.05 2.7,10.72 1.7,-1.34 3.9,-1.55 4.9,-1.55 3.5,0 5.4,2.24 6.6,3.65 0.5,-2.25 2.3,-3.65 4.5,-3.65 1.7,0 2.9,1.15 3.7,2.74 0.8,1.8 1.5,4.84 1.5,4.94 0,0.5 -0.5,0.5 -0.6,0.5 -0.5,0 -0.6,-0.21 -0.7,-0.91 -0.9,-3.23 -1.8,-6.17 -3.8,-6.17 -1.3,0 -1.5,1.3 -1.5,2.3 0,1.09 0.6,3.43 1,5.17 l 1.4,5.39 c 0.2,0.75 0.6,2.64 0.8,3.39 0.3,1.14 0.8,3.03 0.8,3.33 0,0.9 -0.7,1.34 -1.4,1.34 -0.3,0 -1.6,-0.05 -2,-1.73 l -2.3,-9.33 c -0.6,-2.49 -1.2,-4.58 -1.4,-5.08 0,-0.25 -2.4,-4.78 -6.4,-4.78 -2.5,0 -3.7,1.64 -3.7,4.33 0,1.45 0.3,2.84 0.7,4.25 z"
           id="path3273"
           inkscape:connector-curvature="0"
           style="fill:#000000;stroke-width:0" /></g>    </g>
    <g
       id="g3371"
       transform="translate(163.3333,-1680.0001)">
      <g
         word-spacing="normal"
         letter-spacing="normal"
         font-size-adjust="none"
         font-stretch="normal"
         font-weight="normal"
         font-variant="normal"
         font-style="normal"
         stroke-miterlimit="10.433"
         xml:space="preserve"
         transform="matrix(2.5309334,0,0,-2.5309334,-442.91335,2657.4802)"
         id="g3373"
         style="font-style:normal;font-variant:normal;font-weight:normal;font-stretch:normal;letter-spacing:normal;word-spacing:normal;text-anchor:start;fill:none;stroke:#000000;stroke-linecap:butt;stroke-linejoin:miter;stroke-miterlimit:10.43299961;stroke-opacity:1;stroke-dasharray:none;stroke-dashoffset:0"><path
           id="path3375"
           d="m 1250.8,365.02 0,0 0.1,0 0.1,0 0.1,0 0,0.01 0.1,0 0.1,0.01 0.1,0.01 0.1,0.01 0.1,0.01 0.1,0.02 0.1,0.02 0.1,0.02 0.1,0.03 0.1,0.04 0.1,0.03 0.1,0.05 0.1,0.04 0.1,0.06 0.1,0.06 0.1,0.06 0.1,0.07 0,0.04 0,0.04 0.1,0.04 0,0.05 0.1,0.04 0,0.05 0,0.05 0,0.05 0.1,0.06 0,0.05 0,0.06 0,0.06 0,0.06 0.1,0.07 0,0.06 0,0.07 0,0.07 0,0.08 0,0.07 0,0.08 c 0,1.19 -1,1.19 -1.9,1.19 h -11.4 c -7.5,0 -13.1,-8.22 -13.1,-14.14 0,-4.39 3,-7.88 7.5,-7.88 l 0.1,1.1 c -2.5,0 -4.5,1.8 -4.5,5.37 0,1.5 0.6,5.6 2.4,8.53 2.1,3.44 5.1,4.13 6.8,4.13 4.1,0 4.6,-3.28 4.6,-4.83 0,-2.34 -1,-6.42 -2.7,-8.97 -2,-2.93 -4.7,-4.23 -6.6,-4.23 h 0 l -0.1,-1.1 c 5.9,0 12.5,6.04 12.5,13.71 0,0.84 0,3.23 -1.5,5.42 z"
           inkscape:connector-curvature="0"
           style="fill:#000000;stroke-width:0" /></g>    </g>
    <g
       id="g3479"
       transform="translate(416.66667,-2966.6667)">
      <g
         id="g3481"
         transform="matrix(2.5309334,0,0,-2.5309334,-442.91335,2657.4802)"
         xml:space="preserve"
         stroke-miterlimit="10.433"
         font-style="normal"
         font-variant="normal"
         font-weight="normal"
         font-stretch="normal"
         font-size-adjust="none"
         letter-spacing="normal"
         word-spacing="normal"
         style="font-style:normal;font-variant:normal;font-weight:normal;font-stretch:normal;letter-spacing:normal;word-spacing:normal;text-anchor:start;fill:none;stroke:#000000;stroke-linecap:butt;stroke-linejoin:miter;stroke-miterlimit:10.43299961;stroke-opacity:1;stroke-dasharray:none;stroke-dashoffset:0"><path
           d="m 1251.1,374.69 0.2,0.41 0.3,0.39 0.2,0.38 0.2,0.37 0.2,0.18 0.1,0.17 0.1,0.17 0.2,0.17 0.1,0.16 0.2,0.15 0.1,0.15 0.2,0.15 0.1,0.13 0.2,0.14 0.2,0.12 0.1,0.12 0.2,0.12 0.2,0.1 0.2,0.1 0.2,0.1 0.3,0.08 0.2,0.08 0.2,0.07 0.3,0.06 0.2,0.06 0.3,0.04 0.3,0.04 0.3,0.03 c 0.4,0.04 0.9,0.04 0.9,1 0,0.18 -0.2,0.54 -0.6,0.54 -1.2,0 -2.6,-0.15 -3.8,-0.15 -1.7,0 -3.6,0.15 -5.2,0.15 -0.3,0 -0.9,0 -0.9,-0.95 0,-0.55 0.4,-0.59 0.7,-0.59 1.2,-0.05 2.9,-0.46 2.9,-1.94 0,-0.55 -0.2,-0.95 -0.6,-1.66 l -13.5,-23.45 -1.8,24.7 c -0.1,1 -0.1,2.3 3.5,2.35 0.8,0 1.3,0 1.3,1 0,0.5 -0.5,0.54 -0.7,0.54 -2,0 -4.1,-0.15 -6.1,-0.15 -1.1,0 -4.1,0.15 -5.2,0.15 -0.3,0 -1,0 -1,-1 0,-0.54 0.5,-0.54 1.2,-0.54 2.2,0 2.5,-0.3 2.7,-1.25 l 0.3,-3.83 -12.6,-21.97 -1.9,25.25 c 0,0.59 0,1.75 3.7,1.8 0.5,0 1.1,0 1.1,1 0,0.54 -0.6,0.54 -0.7,0.54 -2,0 -4.1,-0.15 -6.1,-0.15 -1.8,0 -3.6,0.15 -5.3,0.15 -0.2,0 -0.9,0 -0.9,-0.95 0,-0.59 0.5,-0.59 1.3,-0.59 2.5,0 2.5,-0.46 2.6,-1.85 l 2.3,-30.44 c 0,-0.9 0.1,-1.29 0.8,-1.29 0.6,0 0.7,0.29 1.2,1.04 l 14.6,25.41 1.9,-25.16 c 0,-1.04 0.1,-1.29 0.8,-1.29 0.6,0 0.9,0.5 1.1,0.94 z"
           id="path3483"
           inkscape:connector-curvature="0"
           style="fill:#000000;stroke-width:0" /><path
           d="m 1264.1,361.04 0,0.04 0,0.04 0,0.04 0,0.04 0,0.04 0,0.04 0,0.04 0,0.03 0,0.03 0,0.04 0,0.03 0,0.03 0,0.03 0,0.03 0,0.02 0,0.03 0,0.03 0,0.02 0,0.02 0,0.03 0,0.04 -0.1,0.04 0,0.03 0,0.03 0,0.03 0,0.02 -0.1,0.03 0,0.02 0,0.01 -0.1,0.02 0,0.01 -0.1,0.01 0,0.01 0,0 0,0.01 -0.1,0 0,0 0,0.01 0,0 -0.1,0 0,0 0,0 -0.1,0.01 0,0 0,0 -0.1,0 0,0 -0.1,0 0,0 0,0 -0.1,0 0,0 c -2.3,-2.2 -5.4,-2.23 -6.9,-2.23 v -1.25 c 0.9,0 3.2,0 5.1,0.96 v -17.76 c 0,-1.16 0,-1.61 -3.5,-1.61 h -1.3 v -1.25 c 0.6,0.03 4.9,0.14 6.2,0.14 1.1,0 5.5,-0.11 6.2,-0.14 v 1.25 h -1.3 c -3.5,0 -3.5,0.45 -3.5,1.61 z"
           id="path3485"
           inkscape:connector-curvature="0"
           style="fill:#000000;stroke-width:0" /></g>    </g>
    <g
       id="g3597"
       transform="translate(1733.3333,-1676.6667)">
      <g
         word-spacing="normal"
         letter-spacing="normal"
         font-size-adjust="none"
         font-stretch="normal"
         font-weight="normal"
         font-variant="normal"
         font-style="normal"
         stroke-miterlimit="10.433"
         xml:space="preserve"
         transform="matrix(2.5309334,0,0,-2.5309334,-442.91335,2657.4802)"
         id="g3599"
         style="font-style:normal;font-variant:normal;font-weight:normal;font-stretch:normal;letter-spacing:normal;word-spacing:normal;text-anchor:start;fill:none;stroke:#000000;stroke-linecap:butt;stroke-linejoin:miter;stroke-miterlimit:10.43299961;stroke-opacity:1;stroke-dasharray:none;stroke-dashoffset:0"><path
           id="path3601"
           d="m 1251.1,374.69 0.2,0.41 0.3,0.39 0.2,0.38 0.2,0.37 0.2,0.18 0.1,0.17 0.1,0.17 0.2,0.17 0.1,0.16 0.2,0.15 0.1,0.15 0.2,0.15 0.1,0.13 0.2,0.14 0.2,0.12 0.1,0.12 0.2,0.12 0.2,0.1 0.2,0.1 0.2,0.1 0.3,0.08 0.2,0.08 0.2,0.07 0.3,0.06 0.2,0.06 0.3,0.04 0.3,0.04 0.3,0.03 c 0.4,0.04 0.9,0.04 0.9,1 0,0.18 -0.2,0.54 -0.6,0.54 -1.2,0 -2.6,-0.15 -3.8,-0.15 -1.7,0 -3.6,0.15 -5.2,0.15 -0.3,0 -0.9,0 -0.9,-0.95 0,-0.55 0.4,-0.59 0.7,-0.59 1.2,-0.05 2.9,-0.46 2.9,-1.94 0,-0.55 -0.2,-0.95 -0.6,-1.66 l -13.5,-23.45 -1.8,24.7 c -0.1,1 -0.1,2.3 3.5,2.35 0.8,0 1.3,0 1.3,1 0,0.5 -0.5,0.54 -0.7,0.54 -2,0 -4.1,-0.15 -6.1,-0.15 -1.1,0 -4.1,0.15 -5.2,0.15 -0.3,0 -1,0 -1,-1 0,-0.54 0.5,-0.54 1.2,-0.54 2.2,0 2.5,-0.3 2.7,-1.25 l 0.3,-3.83 -12.6,-21.97 -1.9,25.25 c 0,0.59 0,1.75 3.7,1.8 0.5,0 1.1,0 1.1,1 0,0.54 -0.6,0.54 -0.7,0.54 -2,0 -4.1,-0.15 -6.1,-0.15 -1.8,0 -3.6,0.15 -5.3,0.15 -0.2,0 -0.9,0 -0.9,-0.95 0,-0.59 0.5,-0.59 1.3,-0.59 2.5,0 2.5,-0.46 2.6,-1.85 l 2.3,-30.44 c 0,-0.9 0.1,-1.29 0.8,-1.29 0.6,0 0.7,0.29 1.2,1.04 l 14.6,25.41 1.9,-25.16 c 0,-1.04 0.1,-1.29 0.8,-1.29 0.6,0 0.9,0.5 1.1,0.94 z"
           inkscape:connector-curvature="0"
           style="fill:#000000;stroke-width:0" /><path
           id="path3603"
           d="m 1270,345.22 h -1.2 c 0,-0.76 -0.4,-2.83 -0.9,-3.17 -0.2,-0.2 -2.9,-0.2 -3.4,-0.2 h -6.4 c 3.6,3.23 4.9,4.2 7,5.84 2.5,2.06 4.9,4.22 4.9,7.53 0,4.22 -3.7,6.8 -8.1,6.8 -4.3,0 -7.3,-3.03 -7.3,-6.23 0,-1.79 1.5,-1.96 1.9,-1.96 0.8,0 1.8,0.6 1.8,1.85 0,0.62 -0.2,1.84 -2,1.84 1,2.47 3.4,3.23 5.1,3.23 3.4,0 5.3,-2.7 5.3,-5.53 0,-3.03 -2.2,-5.43 -3.3,-6.68 l -8.4,-8.3 c -0.4,-0.31 -0.4,-0.39 -0.4,-1.36 h 14.4 z"
           inkscape:connector-curvature="0"
           style="fill:#000000;stroke-width:0" /></g>    </g>
    <path
       sodipodi:nodetypes="cc"
       inkscape:connector-curvature="0"
       id="path5779-1"
       d="M 1310.2856,-969.27618 C 1184.6385,-623.17789 794.57621,-211.81526 410.34092,-191.8967"
       style="fill:none;stroke:#ff8200;stroke-width:10.62992096;stroke-linecap:butt;stroke-linejoin:miter;stroke-miterlimit:4;stroke-opacity:1;stroke-dasharray:none" />
    <path
       inkscape:connector-curvature="0"
       id="path4083-9-1"
       d="m 2823.2003,-12.444636 -1148.9459,-0.2289"
       style="fill:none;stroke:#000000;stroke-width:7.08661413;stroke-linecap:butt;stroke-linejoin:miter;stroke-miterlimit:4;stroke-opacity:1;stroke-dasharray:none;marker-start:url(#Arrow2Mstart);marker-mid:none" />
    <path
       inkscape:connector-curvature="0"
       id="path4083-9-4-6"
       d="m 1673.4945,-1158.2374 4.1888,1148.9381641"
       style="fill:none;stroke:#000000;stroke-width:7.08661413;stroke-linecap:butt;stroke-linejoin:miter;stroke-miterlimit:4;stroke-opacity:1;stroke-dasharray:none;marker-start:url(#Arrow2Mstart);marker-mid:none" />
    <path
       sodipodi:nodetypes="cc"
       inkscape:connector-curvature="0"
       id="path5779-8"
       d="m 2523.6199,-1045.2571 c -117.5567,203.80782 -482.503,446.04802 -841.9973,457.77755"
       style="fill:none;stroke:#ff0000;stroke-width:10.62992096;stroke-linecap:butt;stroke-linejoin:miter;stroke-miterlimit:4;stroke-opacity:1;stroke-dasharray:none" />
    <path
       sodipodi:nodetypes="cc"
       inkscape:connector-curvature="0"
       id="path5781-9-8"
       d="M 1677.9975,-580.58369 2722.36,-570.39442"
       style="fill:none;stroke:#ffff00;stroke-width:10.62992096;stroke-linecap:butt;stroke-linejoin:miter;stroke-miterlimit:4;stroke-opacity:1;stroke-dasharray:none" />
    <path
       sodipodi:nodetypes="cc"
       inkscape:connector-curvature="0"
       id="path5779-1-4"
       d="m 1681.8227,-576.00545 c 245.1306,-7.14636 649.306,143.81447 840.1062,393.13236"
       style="fill:none;stroke:#ff8200;stroke-width:10.62992096;stroke-linecap:butt;stroke-linejoin:miter;stroke-miterlimit:4;stroke-opacity:1;stroke-dasharray:none" />
    <path
       inkscape:connector-curvature="0"
       id="path4083-9-1-8"
       d="m 4384.676,-39.600203 -1148.9459,-0.2289"
       style="fill:none;stroke:#000000;stroke-width:7.08661413;stroke-linecap:butt;stroke-linejoin:miter;stroke-miterlimit:4;stroke-opacity:1;stroke-dasharray:none;marker-start:url(#Arrow2Mstart);marker-mid:none" />
    <path
       inkscape:connector-curvature="0"
       id="path4083-9-4-6-1"
       d="m 3234.9702,-1185.393 4.1888,1148.938197"
       style="fill:none;stroke:#000000;stroke-width:7.08661413;stroke-linecap:butt;stroke-linejoin:miter;stroke-miterlimit:4;stroke-opacity:1;stroke-dasharray:none;marker-start:url(#Arrow2Mstart);marker-mid:none" />
    <path
       sodipodi:nodetypes="cc"
       inkscape:connector-curvature="0"
       id="path5779-8-2"
       d="m 4166.9104,-177.14795 c -337.0716,-110.14457 -742.975,-466.56792 -770.627,-826.08515"
       style="fill:none;stroke:#ff0000;stroke-width:10.62992096;stroke-linecap:butt;stroke-linejoin:miter;stroke-miterlimit:4;stroke-opacity:1;stroke-dasharray:none" />
    <path
       sodipodi:nodetypes="cc"
       inkscape:connector-curvature="0"
       id="path5781-9-8-1"
       d="m 3389.0354,-1010.2422 783.5713,836.86197"
       style="fill:none;stroke:#ffff00;stroke-width:10.62992096;stroke-linecap:butt;stroke-linejoin:miter;stroke-miterlimit:4;stroke-opacity:1;stroke-dasharray:none" />
    <path
       sodipodi:nodetypes="cc"
       inkscape:connector-curvature="0"
       id="path5779-1-4-4"
       d="m 3394.1031,-1010.286 c 323.5568,94.84842 727.8897,449.82443 777.4617,834.66796"
       style="fill:none;stroke:#ff8200;stroke-width:10.62992096;stroke-linecap:butt;stroke-linejoin:miter;stroke-miterlimit:4;stroke-opacity:1;stroke-dasharray:none" />
    <text
       xml:space="preserve"
       style="font-size:40px;font-style:normal;font-weight:normal;line-height:125%;letter-spacing:0px;word-spacing:0px;fill:#000000;fill-opacity:1;stroke:none;font-family:Sans"
       x="820.2439"
       y="98.167397"
       id="text6110"
       sodipodi:linespacing="125%"
       transform="translate(0,-1580.315)"><tspan
         sodipodi:role="line"
         id="tspan6112"
         x="820.2439"
         y="98.167397" /></text>
  </g>
</svg>
